<svg id="Layer_1" data-name="Layer 1" xmlns="http://www.w3.org/2000/svg" viewBox="0 0 1480 800"><title>final</title><path d="M540.7,602.5H374.1a8.2,8.2,0,0,0-8.1,8.1V742.9a8.2,8.2,0,0,0,8.1,8.1H540.7a8.2,8.2,0,0,0,8.1-8.1V610.6A8.2,8.2,0,0,0,540.7,602.5Zm-.2,140.2-166.2.2-.2-99.6H540.5Zm-106-117a5.8,5.8,0,1,1-11.5,0,5.8,5.8,0,0,1,11.5,0Zm-17,0a5.8,5.8,0,1,1-11.5,0,5.8,5.8,0,0,1,11.5,0Zm-17,0a5.8,5.8,0,1,1-11.5,0,5.8,5.8,0,0,1,11.5,0Zm-.7,81.9a2.5,2.5,0,0,1,2.5-2.5h45.5a2.5,2.5,0,1,1,0,5H402.3A2.5,2.5,0,0,1,399.8,707.6Zm0-40.5a2.5,2.5,0,0,1,2.5-2.5h74.3a2.5,2.5,0,1,1,0,4.9H402.3A2.5,2.5,0,0,1,399.8,667.1Zm0,20.1a2.5,2.5,0,0,1,2.5-2.5h74.3a2.5,2.5,0,1,1,0,5H402.3A2.5,2.5,0,0,1,399.8,687.2Z" style="fill:#36393a"/><path d="M549.5,173.8V63.7a8.7,8.7,0,0,0-8.7-8.7H374.9a8.7,8.7,0,0,0-8.7,8.7V173.8H354.6c1,7.8,6.5,13.9,13,13.9H547.1c6.6,0,12-6.1,13.1-13.9ZM376.1,64.9H539.5V173.8H376.1Z" style="fill:#36393a"/><path d="M592.7,8.2l-1.5,8.5h-3.7l2.2-8.5Zm6.5,0L598,16.7h-3.9l2.1-8.5Z" style="fill:#36393a"/><path d="M611,30.8h-3.8l-6-22.6h4.2l3.9,17.1h.1L614,8.2h3.5L622,25.3h.2l3.9-17.1h4.2l-6.1,22.6h-3.8l-4.6-16.4h-.1Z" style="fill:#36393a"/><path d="M632.6,8.2h3.9V17h.1a5.3,5.3,0,0,1,5.2-3.1c3.7,0,5.8,2.4,5.8,6.2V30.8h-3.9V20.9c0-2.3-1.2-3.7-3.4-3.7a3.7,3.7,0,0,0-3.8,4v9.6h-3.9Z" style="fill:#36393a"/><path d="M650,26c0-2.9,2.3-4.7,6.3-4.9l4.4-.3V19.6c0-1.7-1.2-2.7-3.1-2.7s-3,.9-3.2,2.3h-3.6c.1-3.1,2.8-5.3,7-5.3s6.8,2.1,6.8,5.5V30.8h-3.8V28.1h-.1a5.7,5.7,0,0,1-5.1,2.9C652.4,31,650,29,650,26Zm10.7-1.4V23.4l-3.8.2c-1.9.1-3,1-3,2.3s1.2,2.2,2.9,2.2A3.6,3.6,0,0,0,660.7,24.6Z" style="fill:#36393a"/><path d="M672.7,10.3v3.9h3.1v3h-3.1v8.6c0,1.4.6,2,2,2h1.1v3h-2c-3.6,0-5-1.2-5-4.4V17.2h-2.4v-3h2.4V10.3Z" style="fill:#36393a"/><path d="M678.4,16.7l1.4-8.5h3.8l-2.2,8.5Z" style="fill:#36393a"/><path d="M691.2,13.9c4,0,6.6,2.1,6.7,5.3h-3.6a2.8,2.8,0,0,0-3.1-2.5c-1.7,0-2.8.8-2.8,2s.6,1.7,2.4,2l2.7.7c3.5.7,4.8,2,4.8,4.5s-2.9,5.2-6.9,5.2-6.9-2.1-7.2-5.3H688c.3,1.6,1.4,2.4,3.4,2.4s3-.7,3-2-.6-1.5-2.3-1.9l-2.8-.6c-3.1-.7-4.7-2.3-4.7-4.8S687.2,13.9,691.2,13.9Z" style="fill:#36393a"/><path d="M712.1,10.3v3.9h3.2v3h-3.2v8.6a1.8,1.8,0,0,0,2,2h1.1v3h-2c-3.5,0-5-1.2-5-4.4V17.2h-2.3v-3h2.3V10.3Z" style="fill:#36393a"/><path d="M718,8.2h3.9V17h0a5.4,5.4,0,0,1,5.3-3.1c3.6,0,5.8,2.4,5.8,6.2V30.8h-3.9V20.9c0-2.3-1.2-3.7-3.4-3.7s-3.8,1.6-3.8,4v9.6H718Z" style="fill:#36393a"/><path d="M750.7,25.8c-.5,3.1-3.4,5.3-7.3,5.3s-8-3.3-8-8.6,3-8.6,7.8-8.6,7.6,3.2,7.6,8.3v1.2H739.3v.3c0,2.6,1.6,4.4,4.1,4.4a3.5,3.5,0,0,0,3.6-2.3Zm-11.4-4.9H747a3.7,3.7,0,0,0-3.8-4C741,16.9,739.5,18.5,739.3,20.9Z" style="fill:#36393a"/><path d="M760.1,30.8V8.2h4.1V30.8Z" style="fill:#36393a"/><path d="M776.9,8.2a7.2,7.2,0,0,1,7.6,7.6c0,4.5-3.2,7.5-7.8,7.5h-4.5v7.5h-4.1V8.2Zm-4.7,11.9h3.6c2.9,0,4.6-1.6,4.6-4.3s-1.7-4.3-4.6-4.3h-3.6Z" style="fill:#36393a"/><path d="M794.5,17.2h-2.2v-3h2.2V12.8c0-3.2,1.6-4.8,5.2-4.8l2.1.2v2.7h-1.3c-1.5,0-2.1.7-2.1,2.1v1.3h3.3v3h-3.3V30.8h-3.9Z" style="fill:#36393a"/><path d="M803,22.5c0-5.4,3.2-8.6,8-8.6s8,3.2,8,8.6-3.2,8.6-8,8.6S803,27.9,803,22.5Zm12,0c0-3.5-1.5-5.6-4-5.6s-4.1,2.1-4.1,5.6S808.5,28,811,28,815,26,815,22.5Z" style="fill:#36393a"/><path d="M821.5,14.2h3.7v2.9h.1a4,4,0,0,1,4-3.2l1.2.2v3.5l-1.6-.2c-2.2,0-3.5,1.4-3.5,3.7v9.7h-3.9Z" style="fill:#36393a"/><path d="M613.5,64.2c-.5,3.1-3.4,5.3-7.3,5.3s-8-3.3-8-8.6,3-8.6,7.8-8.6,7.6,3.2,7.6,8.3v1.2H602.1v.3c0,2.6,1.6,4.4,4.1,4.4a3.5,3.5,0,0,0,3.6-2.3Zm-11.4-4.9h7.7a3.7,3.7,0,0,0-3.8-4A3.9,3.9,0,0,0,602.1,59.3Z" style="fill:#36393a"/><path d="M622.3,63.2l-3.5,6h-4.1l5.3-8.3-5.3-8.3h4.4l3.4,5.8h0l3.3-5.8h4.3l-5.3,8.2,5.2,8.4h-4.2l-3.5-6Z" style="fill:#36393a"/><path d="M631.2,64.4c0-2.9,2.2-4.7,6.3-4.9l4.3-.3V58c0-1.7-1.1-2.7-3.1-2.7s-3,.9-3.2,2.3h-3.6c.1-3.1,2.8-5.3,7-5.3s6.8,2.1,6.8,5.5V69.2h-3.8V66.5h-.1a5.7,5.7,0,0,1-5.1,2.9C633.5,69.4,631.2,67.4,631.2,64.4ZM641.8,63V61.8L638,62c-1.9.1-3,1-3,2.3s1.2,2.2,2.9,2.2A3.6,3.6,0,0,0,641.8,63Z" style="fill:#36393a"/><path d="M648.8,52.6h3.7v2.9h.1a4.9,4.9,0,0,1,4.7-3.2,4.6,4.6,0,0,1,4.7,3.3h0a5.4,5.4,0,0,1,5.2-3.3,5.1,5.1,0,0,1,5.4,5.5V69.2h-3.9V58.8c0-2.1-1-3.2-2.9-3.2a3.1,3.1,0,0,0-3.2,3.3V69.2h-3.8V58.6a2.7,2.7,0,0,0-2.9-3,3.2,3.2,0,0,0-3.2,3.4V69.2h-3.9Z" style="fill:#36393a"/><path d="M691.7,60.9c0,5.3-2.7,8.5-6.8,8.5a5.5,5.5,0,0,1-5.2-3h-.1v8.2h-3.9v-22h3.8v2.9h.1a5.5,5.5,0,0,1,5.2-3.2C689,52.3,691.7,55.6,691.7,60.9Zm-4,0c0-3.3-1.6-5.4-4.1-5.4s-4,2.2-4,5.4,1.6,5.3,4,5.3S687.7,64.2,687.7,60.9Z" style="fill:#36393a"/><path d="M694.3,46.6h3.9V69.2h-3.9Z" style="fill:#36393a"/><path d="M716.1,64.2c-.5,3.1-3.4,5.3-7.3,5.3s-8-3.3-8-8.6,3-8.6,7.8-8.6,7.7,3.2,7.7,8.3v1.2H704.7v.3a4,4,0,0,0,4.2,4.4,3.6,3.6,0,0,0,3.6-2.3Zm-11.4-4.9h7.8a3.8,3.8,0,0,0-3.9-4C706.5,55.3,704.9,56.9,704.7,59.3Z" style="fill:#36393a"/><path d="M719.2,67.1a2.3,2.3,0,1,1,4.5,0,2.2,2.2,0,0,1-2.2,2.2A2.2,2.2,0,0,1,719.2,67.1Z" style="fill:#36393a"/><path d="M737.5,58.5a3.4,3.4,0,0,0-3.6-3.1c-2.5,0-4,2.1-4,5.5s1.6,5.4,4,5.4a3.4,3.4,0,0,0,3.6-3h3.7c-.3,3.8-3.2,6.2-7.3,6.2s-8-3.2-8-8.6,3.1-8.6,7.9-8.6,7.1,2.7,7.4,6.2Z" style="fill:#36393a"/><path d="M742.8,60.9c0-5.4,3.2-8.6,8-8.6s8.1,3.2,8.1,8.6-3.2,8.6-8.1,8.6S742.8,66.3,742.8,60.9Zm12.1,0c0-3.5-1.6-5.6-4.1-5.6s-4,2.1-4,5.6,1.6,5.5,4,5.5S754.9,64.4,754.9,60.9Z" style="fill:#36393a"/><path d="M761.4,52.6h3.7v2.9h.1a4.8,4.8,0,0,1,4.7-3.2,4.5,4.5,0,0,1,4.6,3.3h.1a5.4,5.4,0,0,1,5.2-3.3,5.2,5.2,0,0,1,5.4,5.5V69.2h-3.9V58.8c0-2.1-1.1-3.2-3-3.2a3,3,0,0,0-3.1,3.3V69.2h-3.8V58.6a2.8,2.8,0,0,0-3-3,3.2,3.2,0,0,0-3.2,3.4V69.2h-3.8Z" style="fill:#36393a"/><path d="M794.8,46.4c4.3,0,7.2,2.5,7.2,5.9a6.1,6.1,0,0,1-3.3,5.4c-2.1,1.1-2.7,2-2.7,3.5v.9h-3.6V61c-.1-2.3.8-3.7,2.9-5s2.6-2,2.6-3.5-1.3-2.9-3.3-2.9a3.2,3.2,0,0,0-3.4,3.2h-3.7C787.7,49.1,790.2,46.4,794.8,46.4ZM792,67.3a2.2,2.2,0,0,1,2.3-2.2,2.2,2.2,0,0,1,2.2,2.2,2.2,2.2,0,0,1-2.2,2.2A2.2,2.2,0,0,1,792,67.3Z" style="fill:#36393a"/><path d="M805.3,55.1l1.3-8.5h3.8l-2.2,8.5Zm6.6,0,1.3-8.5h3.9l-2.3,8.5Z" style="fill:#36393a"/><path d="M378.9,529.8c-.5,3.1-3.4,5.3-7.3,5.3s-8-3.3-8-8.6,3-8.6,7.8-8.6,7.6,3.2,7.6,8.3v1.2H367.5v.3c0,2.6,1.6,4.4,4.1,4.4a3.5,3.5,0,0,0,3.6-2.3Zm-11.4-4.9h7.7a3.7,3.7,0,0,0-3.8-4C369.2,520.9,367.7,522.5,367.5,524.9Z" style="fill:#36393a"/><path d="M387.7,528.8l-3.5,6h-4.1l5.3-8.3-5.3-8.3h4.4l3.4,5.8h0l3.3-5.8h4.3l-5.3,8.2,5.2,8.4h-4.2l-3.5-6Z" style="fill:#36393a"/><path d="M396.6,530c0-2.9,2.2-4.7,6.3-4.9l4.3-.3v-1.2c0-1.7-1.1-2.7-3.1-2.7s-3,.9-3.2,2.3h-3.6c.1-3.1,2.8-5.3,7-5.3s6.8,2.1,6.8,5.5v11.4h-3.8v-2.7h-.1a5.7,5.7,0,0,1-5.1,2.9C398.9,535,396.6,533,396.6,530Zm10.6-1.4v-1.2l-3.8.2c-1.9.1-3,1-3,2.3s1.2,2.2,2.9,2.2A3.6,3.6,0,0,0,407.2,528.6Z" style="fill:#36393a"/><path d="M414.2,518.2h3.7v2.9h.1a4.9,4.9,0,0,1,4.7-3.2,4.6,4.6,0,0,1,4.7,3.3h0a5.4,5.4,0,0,1,5.2-3.3,5.1,5.1,0,0,1,5.4,5.5v11.4h-3.9V524.4c0-2.1-1-3.2-2.9-3.2a3.1,3.1,0,0,0-3.2,3.3v10.3h-3.8V524.2a2.7,2.7,0,0,0-2.9-3,3.2,3.2,0,0,0-3.2,3.4v10.2h-3.9Z" style="fill:#36393a"/><path d="M457.1,526.5c0,5.3-2.7,8.5-6.8,8.5a5.5,5.5,0,0,1-5.2-3H445v8.2h-3.9v-22h3.8v2.9h.1a5.5,5.5,0,0,1,5.2-3.2C454.4,517.9,457.1,521.2,457.1,526.5Zm-4,0c0-3.3-1.6-5.4-4.1-5.4s-4,2.2-4,5.4,1.6,5.3,4,5.3S453.1,529.8,453.1,526.5Z" style="fill:#36393a"/><path d="M459.7,512.2h3.9v22.6h-3.9Z" style="fill:#36393a"/><path d="M481.5,529.8c-.5,3.1-3.4,5.3-7.3,5.3s-8-3.3-8-8.6,3-8.6,7.8-8.6,7.7,3.2,7.7,8.3v1.2H470.1v.3a4,4,0,0,0,4.2,4.4,3.6,3.6,0,0,0,3.6-2.3Zm-11.4-4.9h7.8a3.8,3.8,0,0,0-3.9-4C471.9,520.9,470.3,522.5,470.1,524.9Z" style="fill:#36393a"/><path d="M484.6,532.7a2.3,2.3,0,1,1,4.5,0,2.2,2.2,0,0,1-2.2,2.2A2.2,2.2,0,0,1,484.6,532.7Z" style="fill:#36393a"/><path d="M502.9,524.1a3.4,3.4,0,0,0-3.6-3.1c-2.5,0-4,2.1-4,5.5s1.6,5.4,4,5.4a3.4,3.4,0,0,0,3.6-3h3.7c-.3,3.8-3.2,6.2-7.3,6.2s-8-3.2-8-8.6,3.1-8.6,7.9-8.6,7.1,2.7,7.4,6.2Z" style="fill:#36393a"/><path d="M508.2,526.5c0-5.4,3.2-8.6,8-8.6s8.1,3.2,8.1,8.6-3.2,8.6-8.1,8.6S508.2,531.9,508.2,526.5Zm12.1,0c0-3.5-1.6-5.6-4.1-5.6s-4,2.1-4,5.6,1.6,5.5,4,5.5S520.3,530,520.3,526.5Z" style="fill:#36393a"/><path d="M526.8,518.2h3.7v2.9h.1a4.8,4.8,0,0,1,4.7-3.2,4.5,4.5,0,0,1,4.6,3.3h.1a5.4,5.4,0,0,1,5.2-3.3,5.2,5.2,0,0,1,5.4,5.5v11.4h-3.9V524.4c0-2.1-1.1-3.2-3-3.2a3,3,0,0,0-3.1,3.3v10.3h-3.8V524.2a2.7,2.7,0,0,0-3-3,3.1,3.1,0,0,0-3.1,3.4v10.2h-3.9Z" style="fill:#36393a"/><path d="M302.5,573.2V550.6h4v22.6Z" style="fill:#36393a"/><path d="M319.3,550.6a7.2,7.2,0,0,1,7.5,7.6c0,4.5-3.2,7.5-7.7,7.5h-4.6v7.5h-4V550.6Zm-4.8,11.9h3.7c2.9,0,4.6-1.6,4.6-4.3s-1.7-4.3-4.6-4.3h-3.7Z" style="fill:#36393a"/><path d="M335.1,568.4c0-2.9,2.3-4.7,6.3-4.9l4.4-.3V562c0-1.7-1.2-2.7-3.1-2.7s-3,.9-3.2,2.3h-3.7c.2-3.1,2.9-5.3,7.1-5.3s6.8,2.1,6.8,5.5v11.4h-3.8v-2.7h-.1a5.7,5.7,0,0,1-5.1,2.9C337.5,573.4,335.1,571.4,335.1,568.4Zm10.7-1.4v-1.2l-3.8.2c-1.9.1-3,1-3,2.3s1.2,2.2,2.8,2.2A3.7,3.7,0,0,0,345.8,567Z" style="fill:#36393a"/><path d="M352.1,564.9c0-5.3,2.7-8.6,6.9-8.6a5.7,5.7,0,0,1,5.1,3.1h.1v-8.8h3.9v22.6h-3.8v-2.9h-.1a5.5,5.5,0,0,1-5.2,3.1C354.8,573.4,352.1,570.1,352.1,564.9Zm4,0c0,3.3,1.5,5.3,4,5.3s4.1-2,4.1-5.3-1.6-5.4-4.1-5.4S356.1,561.6,356.1,564.9Z" style="fill:#36393a"/><path d="M370.7,564.9c0-5.3,2.7-8.6,6.8-8.6a5.7,5.7,0,0,1,5.2,3.1h.1v-8.8h3.8v22.6h-3.8v-2.9h0a5.6,5.6,0,0,1-5.3,3.1C373.4,573.4,370.7,570.1,370.7,564.9Zm3.9,0c0,3.3,1.6,5.3,4.1,5.3s4.1-2,4.1-5.3-1.6-5.4-4.1-5.4S374.6,561.6,374.6,564.9Z" style="fill:#36393a"/><path d="M389.9,556.6h3.7v2.9h.1a4,4,0,0,1,4-3.2l1.2.2V560l-1.6-.2c-2.2,0-3.5,1.4-3.5,3.7v9.7h-3.9Z" style="fill:#36393a"/><path d="M414.9,568.2c-.5,3.1-3.4,5.3-7.3,5.3s-8-3.3-8-8.6,3-8.6,7.8-8.6,7.6,3.2,7.6,8.3v1.2H403.5v.3c0,2.6,1.6,4.4,4.1,4.4a3.6,3.6,0,0,0,3.7-2.3Zm-11.4-4.9h7.7a3.7,3.7,0,0,0-3.8-4C405.2,559.3,403.7,560.9,403.5,563.3Z" style="fill:#36393a"/><path d="M423.9,556.3c4,0,6.6,2.1,6.7,5.3H427a2.8,2.8,0,0,0-3.1-2.5c-1.7,0-2.9.8-2.9,2s.7,1.7,2.5,2l2.7.7c3.4.7,4.8,2,4.8,4.5s-2.9,5.2-7,5.2-6.9-2.1-7.2-5.3h3.9q.4,2.4,3.3,2.4c1.9,0,3.1-.7,3.1-2s-.6-1.5-2.3-1.9l-2.8-.6c-3.2-.7-4.7-2.3-4.7-4.8S419.9,556.3,423.9,556.3Z" style="fill:#36393a"/><path d="M439.8,556.3c4,0,6.6,2.1,6.7,5.3h-3.7a2.7,2.7,0,0,0-3-2.5c-1.7,0-2.9.8-2.9,2s.7,1.7,2.4,2l2.8.7c3.4.7,4.8,2,4.8,4.5s-2.9,5.2-7,5.2-6.9-2.1-7.2-5.3h3.8c.3,1.6,1.5,2.4,3.4,2.4s3.1-.7,3.1-2-.6-1.5-2.3-1.9l-2.8-.6q-4.8-1.1-4.8-4.8C433.1,558.3,435.8,556.3,439.8,556.3Z" style="fill:#36393a"/><path d="M449.8,559.4a2.2,2.2,0,0,1,2.2-2.2,2.3,2.3,0,1,1-2.2,2.2Zm0,11.7a2.3,2.3,0,1,1,2.2,2.2A2.2,2.2,0,0,1,449.8,571.1Z" style="fill:#36393a"/><path d="M470.1,554.5H470l-5.8,4v-3.7l5.9-4.2h4v22.6h-4Z" style="fill:#36393a"/><path d="M479.1,567.6h4c.6,1.8,2.1,2.7,4.2,2.7s5.2-3.3,5.2-8.5h0c-.9,2.2-3.2,3.6-6.2,3.6a7.1,7.1,0,0,1-7.4-7.4c0-4.6,3.5-7.9,8.4-7.9s9.1,3.2,9.1,11.5-3.4,12-9.2,12C483,573.6,479.7,571.2,479.1,567.6Zm12.7-9.6a4.5,4.5,0,0,0-9-.1,4.5,4.5,0,0,0,9,.1Z" style="fill:#36393a"/><path d="M507,550.2c4.6,0,7.7,2.8,7.7,6.4s-1.3,4.4-5.2,8.3l-5,4.9H515v3.3H499.2v-2.8l8-7.8c2.9-2.9,3.6-4,3.6-5.7a3.5,3.5,0,0,0-3.8-3.5,4,4,0,0,0-4.2,3.9H499C499,553.1,502.3,550.2,507,550.2Z" style="fill:#36393a"/><path d="M518.4,571.1a2.3,2.3,0,1,1,4.5,0,2.2,2.2,0,0,1-2.2,2.2A2.2,2.2,0,0,1,518.4,571.1Z" style="fill:#36393a"/><path d="M526,561.9c0-7.2,3.4-11.7,8.9-11.7s8.9,4.4,8.9,11.6-3.3,11.8-8.9,11.8S526,569.1,526,561.9Zm13.7,0c0-5.3-1.8-8.4-4.8-8.4s-4.8,3.1-4.8,8.3,1.7,8.5,4.8,8.5S539.7,567.2,539.7,561.9Z" style="fill:#36393a"/><path d="M546.4,571.1a2.3,2.3,0,1,1,4.5,0,2.2,2.2,0,0,1-2.2,2.2A2.2,2.2,0,0,1,546.4,571.1Z" style="fill:#36393a"/><path d="M554,561.9c0-7.2,3.4-11.7,8.9-11.7s8.9,4.4,8.9,11.6-3.3,11.8-8.9,11.8S554,569.1,554,561.9Zm13.7,0c0-5.3-1.8-8.4-4.8-8.4s-4.8,3.1-4.8,8.3,1.7,8.5,4.8,8.5S567.7,567.2,567.7,561.9Z" style="fill:#36393a"/><path d="M574.4,571.1a2.3,2.3,0,1,1,4.5,0,2.2,2.2,0,0,1-2.2,2.2A2.2,2.2,0,0,1,574.4,571.1Z" style="fill:#36393a"/><path d="M586.6,554.5h-.1l-5.8,4v-3.7l5.9-4.2h4v22.6h-4Z" style="fill:#36393a"/><path d="M595.5,562.1c0-7.5,3.5-12,9.2-12,4.2,0,7.4,2.5,8.1,6.1h-4a4,4,0,0,0-4.1-2.8c-3.5,0-5.3,3.3-5.3,8.6h.1a6.4,6.4,0,0,1,6.2-3.7,7.2,7.2,0,0,1,7.4,7.4c0,4.6-3.6,7.9-8.5,7.9S595.5,570.1,595.5,562.1Zm13.6,3.8a4.5,4.5,0,0,0-9-.1,4.5,4.5,0,0,0,4.5,4.5A4.4,4.4,0,0,0,609.1,565.9Z" style="fill:#36393a"/><path d="M1101.7,602.5H935.1a8.2,8.2,0,0,0-8.1,8.1V742.9a8.2,8.2,0,0,0,8.1,8.1h166.6a8.2,8.2,0,0,0,8.1-8.1V610.6A8.2,8.2,0,0,0,1101.7,602.5Zm-.2,140.2-166.2.2-.2-99.6h166.4Zm-106-117a5.8,5.8,0,1,1-11.5,0,5.8,5.8,0,0,1,11.5,0Zm-17,0a5.8,5.8,0,1,1-11.5,0,5.8,5.8,0,0,1,11.5,0Zm-17,0a5.8,5.8,0,1,1-11.5,0,5.8,5.8,0,0,1,11.5,0Z" style="fill:#36393a"/><path d="M914.2,534.8v-16h-.1l-6.5,16h-2.7l-6.5-16h-.2v16h-3.6V512.2h4.7l6.9,17.2h.1l6.9-17.2h4.7v22.6Z" style="fill:#bf223c"/><path d="M920.4,530c0-2.9,2.3-4.7,6.3-4.9l4.4-.3v-1.2c0-1.7-1.2-2.7-3.1-2.7a3.1,3.1,0,0,0-3.3,2.3h-3.6c.2-3.1,2.8-5.3,7.1-5.3s6.7,2.1,6.7,5.5v11.4h-3.7v-2.7h-.1a5.8,5.8,0,0,1-5.2,2.9C922.7,535,920.4,533,920.4,530Zm10.7-1.4v-1.2l-3.8.2c-1.9.1-3,1-3,2.3s1.1,2.2,2.8,2.2A3.7,3.7,0,0,0,931.1,528.6Z" style="fill:#bf223c"/><path d="M938.2,512.2h3.9v22.6h-3.9Z" style="fill:#bf223c"/><path d="M945.3,513.6a2.1,2.1,0,0,1,4.2,0,2.1,2.1,0,0,1-4.2,0Zm.2,4.6h3.9v16.6h-3.9Z" style="fill:#bf223c"/><path d="M963.5,524.1a3.4,3.4,0,0,0-3.6-3.1c-2.4,0-4,2.1-4,5.5s1.6,5.4,4,5.4a3.5,3.5,0,0,0,3.7-3h3.6c-.3,3.8-3.1,6.2-7.3,6.2s-8-3.2-8-8.6,3.2-8.6,8-8.6,7,2.7,7.3,6.2Z" style="fill:#bf223c"/><path d="M969.4,513.6a2.1,2.1,0,0,1,2.2-2.1,2.1,2.1,0,0,1,2.1,2.1,2.1,2.1,0,0,1-2.1,2.1A2.2,2.2,0,0,1,969.4,513.6Zm.2,4.6h3.9v16.6h-3.9Z" style="fill:#bf223c"/><path d="M976.1,526.5c0-5.4,3.2-8.6,8-8.6s8,3.2,8,8.6-3.1,8.6-8,8.6S976.1,531.9,976.1,526.5Zm12.1,0c0-3.5-1.6-5.6-4.1-5.6s-4,2.1-4,5.6,1.6,5.5,4,5.5S988.2,530,988.2,526.5Z" style="fill:#bf223c"/><path d="M1009.3,534.8h-3.7v-2.9h-.1a5.2,5.2,0,0,1-5.1,3.2c-3.6,0-5.8-2.4-5.8-6.2V518.2h3.8v9.9c0,2.4,1.2,3.7,3.4,3.7s3.6-1.6,3.6-4v-9.6h3.9Z" style="fill:#bf223c"/><path d="M1018.8,517.9c4.1,0,6.6,2.1,6.7,5.3h-3.6a2.8,2.8,0,0,0-3.1-2.5c-1.7,0-2.8.8-2.8,2s.7,1.7,2.4,2l2.8.7c3.4.7,4.7,2,4.7,4.5s-2.9,5.2-6.9,5.2-6.9-2.1-7.2-5.3h3.8c.3,1.6,1.4,2.4,3.4,2.4s3-.7,3-2-.6-1.5-2.3-1.9l-2.7-.6q-4.8-1.1-4.8-4.8C1012.2,519.9,1014.8,517.9,1018.8,517.9Z" style="fill:#bf223c"/><path d="M1052.8,534.8h-4.1l-3.3-12.1h-.1l-3.2,12.1H1038l-4.5-16.6h3.9l2.8,12.7h.1l3.3-12.7h3.7l3.2,12.7h.1l2.8-12.7h3.9Z" style="fill:#bf223c"/><path d="M1073.7,529.8c-.5,3.1-3.5,5.3-7.4,5.3s-7.9-3.3-7.9-8.6,3-8.6,7.8-8.6,7.6,3.2,7.6,8.3v1.2h-11.6v.3a4.1,4.1,0,0,0,4.2,4.4,3.5,3.5,0,0,0,3.6-2.3Zm-11.4-4.9h7.7c-.1-2.4-1.6-4-3.8-4A3.9,3.9,0,0,0,1062.3,524.9Z" style="fill:#bf223c"/><path d="M1080.3,531.9h-.1v2.9h-3.8V512.2h3.9V521h.1a5.5,5.5,0,0,1,5.2-3.1c4.1,0,6.8,3.3,6.8,8.6s-2.6,8.5-6.8,8.5A5.5,5.5,0,0,1,1080.3,531.9Zm0-5.4c0,3.2,1.7,5.3,4.1,5.3s4-2,4-5.3-1.5-5.4-4-5.4S1080.3,523.3,1080.3,526.5Z" style="fill:#bf223c"/><path d="M1101.3,517.9c4,0,6.6,2.1,6.6,5.3h-3.6a2.7,2.7,0,0,0-3-2.5c-1.8,0-2.9.8-2.9,2s.7,1.7,2.4,2l2.8.7c3.4.7,4.7,2,4.7,4.5s-2.8,5.2-6.9,5.2-6.9-2.1-7.2-5.3h3.8c.3,1.6,1.4,2.4,3.4,2.4s3.1-.7,3.1-2-.6-1.5-2.4-1.9l-2.7-.6q-4.8-1.1-4.8-4.8C1094.6,519.9,1097.3,517.9,1101.3,517.9Z" style="fill:#bf223c"/><path d="M1110.7,513.6a2.1,2.1,0,0,1,2.1-2.1,2.1,2.1,0,0,1,2.2,2.1,2.2,2.2,0,0,1-4.3,0Zm.2,4.6h3.9v16.6h-3.9Z" style="fill:#bf223c"/><path d="M1123,514.3v3.9h3.2v3H1123v8.6a1.8,1.8,0,0,0,2,2h1.1v3h-2c-3.6,0-5-1.2-5-4.4v-9.2h-2.3v-3h2.3v-3.9Z" style="fill:#bf223c"/><path d="M1143.1,529.8c-.5,3.1-3.4,5.3-7.3,5.3s-8-3.3-8-8.6,3-8.6,7.8-8.6,7.6,3.2,7.6,8.3v1.2h-11.5v.3c0,2.6,1.6,4.4,4.1,4.4s3.2-.9,3.6-2.3Zm-11.4-4.9h7.7a3.7,3.7,0,0,0-3.8-4C1133.4,520.9,1131.9,522.5,1131.7,524.9Z" style="fill:#bf223c"/><path d="M864.5,573.2V550.6h4v22.6Z" style="fill:#bf223c"/><path d="M881.3,550.6a7.2,7.2,0,0,1,7.6,7.6c0,4.5-3.2,7.5-7.8,7.5h-4.6v7.5h-4V550.6Zm-4.8,11.9h3.7c2.9,0,4.6-1.6,4.6-4.3s-1.7-4.3-4.6-4.3h-3.7Z" style="fill:#bf223c"/><path d="M897.2,568.4c0-2.9,2.2-4.7,6.3-4.9l4.3-.3V562c0-1.7-1.1-2.7-3.1-2.7s-3,.9-3.2,2.3h-3.6c.1-3.1,2.8-5.3,7-5.3s6.8,2.1,6.8,5.5v11.4h-3.8v-2.7h0a6,6,0,0,1-5.2,2.9C899.5,573.4,897.2,571.4,897.2,568.4Zm10.6-1.4v-1.2l-3.8.2c-1.9.1-2.9,1-2.9,2.3s1.1,2.2,2.8,2.2A3.6,3.6,0,0,0,907.8,567Z" style="fill:#bf223c"/><path d="M914.1,564.9c0-5.3,2.7-8.6,6.9-8.6a5.6,5.6,0,0,1,5.1,3.1h.1v-8.8h3.9v22.6h-3.8v-2.9h-.1a5.5,5.5,0,0,1-5.2,3.1C916.8,573.4,914.1,570.1,914.1,564.9Zm4,0c0,3.3,1.6,5.3,4.1,5.3s4-2,4-5.3-1.6-5.4-4-5.4S918.1,561.6,918.1,564.9Z" style="fill:#bf223c"/><path d="M932.7,564.9c0-5.3,2.7-8.6,6.9-8.6a5.7,5.7,0,0,1,5.1,3.1h.1v-8.8h3.9v22.6h-3.8v-2.9h-.1a5.5,5.5,0,0,1-5.2,3.1C935.4,573.4,932.7,570.1,932.7,564.9Zm4,0c0,3.3,1.5,5.3,4,5.3s4.1-2,4.1-5.3-1.6-5.4-4.1-5.4S936.7,561.6,936.7,564.9Z" style="fill:#bf223c"/><path d="M951.9,556.6h3.8v2.9h0a4.1,4.1,0,0,1,4-3.2l1.2.2V560l-1.5-.2a3.4,3.4,0,0,0-3.6,3.7v9.7h-3.9Z" style="fill:#bf223c"/><path d="M976.9,568.2c-.5,3.1-3.4,5.3-7.3,5.3s-8-3.3-8-8.6,3.1-8.6,7.8-8.6,7.7,3.2,7.7,8.3v1.2H965.5v.3a4,4,0,0,0,4.2,4.4,3.5,3.5,0,0,0,3.6-2.3Zm-11.4-4.9h7.8a3.8,3.8,0,0,0-3.9-4C967.3,559.3,965.7,560.9,965.5,563.3Z" style="fill:#bf223c"/><path d="M985.9,556.3c4,0,6.6,2.1,6.7,5.3H989a2.8,2.8,0,0,0-3.1-2.5c-1.7,0-2.8.8-2.8,2s.6,1.7,2.4,2l2.7.7c3.5.7,4.8,2,4.8,4.5s-2.9,5.2-6.9,5.2-6.9-2.1-7.2-5.3h3.8c.3,1.6,1.4,2.4,3.4,2.4s3-.7,3-2-.6-1.5-2.3-1.9l-2.8-.6c-3.1-.7-4.7-2.3-4.7-4.8S981.9,556.3,985.9,556.3Z" style="fill:#bf223c"/><path d="M1001.8,556.3c4,0,6.6,2.1,6.7,5.3h-3.6a2.8,2.8,0,0,0-3.1-2.5c-1.7,0-2.9.8-2.9,2s.7,1.7,2.5,2l2.7.7c3.5.7,4.8,2,4.8,4.5s-2.9,5.2-7,5.2-6.8-2.1-7.2-5.3h3.9q.4,2.4,3.3,2.4c1.9,0,3.1-.7,3.1-2s-.6-1.5-2.3-1.9l-2.8-.6c-3.1-.7-4.7-2.3-4.7-4.8S997.8,556.3,1001.8,556.3Z" style="fill:#bf223c"/><path d="M1011.8,559.4a2.2,2.2,0,0,1,2.3-2.2,2.2,2.2,0,0,1,2.2,2.2,2.3,2.3,0,1,1-4.5,0Zm0,11.7a2.3,2.3,0,1,1,4.5,0,2.2,2.2,0,0,1-2.2,2.2A2.2,2.2,0,0,1,1011.8,571.1Z" style="fill:#bf223c"/><path d="M1032.1,554.5h-.1l-5.8,4v-3.7l5.9-4.2h4v22.6h-4Z" style="fill:#bf223c"/><path d="M1041.1,567.6h4c.6,1.8,2.1,2.7,4.2,2.7s5.2-3.3,5.2-8.5h0c-.9,2.2-3.2,3.6-6.1,3.6a7.2,7.2,0,0,1-7.5-7.4c0-4.6,3.5-7.9,8.4-7.9s9.1,3.2,9.1,11.5-3.4,12-9.2,12C1045,573.6,1041.8,571.2,1041.1,567.6Zm12.8-9.6a4.6,4.6,0,0,0-9.1-.1,4.3,4.3,0,0,0,4.5,4.4A4.3,4.3,0,0,0,1053.9,558Z" style="fill:#bf223c"/><path d="M1069.1,550.2c4.6,0,7.6,2.8,7.6,6.4s-1.3,4.4-5.2,8.3l-5,4.9h10.6v3.3h-15.9v-2.8l8-7.8c2.9-2.9,3.6-4,3.6-5.7a3.5,3.5,0,0,0-3.7-3.5,4,4,0,0,0-4.3,3.9H1061C1061,553.1,1064.4,550.2,1069.1,550.2Z" style="fill:#bf223c"/><path d="M1080.5,571.1a2.2,2.2,0,1,1,4.4,0,2.2,2.2,0,1,1-4.4,0Z" style="fill:#bf223c"/><path d="M1088.1,561.9c0-7.2,3.3-11.7,8.8-11.7s8.9,4.4,8.9,11.6-3.3,11.8-8.9,11.8S1088.1,569.1,1088.1,561.9Zm13.6,0c0-5.3-1.8-8.4-4.8-8.4s-4.8,3.1-4.8,8.3,1.8,8.5,4.8,8.5S1101.7,567.2,1101.7,561.9Z" style="fill:#bf223c"/><path d="M1108.5,571.1a2.2,2.2,0,1,1,4.4,0,2.2,2.2,0,0,1-4.4,0Z" style="fill:#bf223c"/><path d="M1116.1,561.9c0-7.2,3.3-11.7,8.8-11.7s8.9,4.4,8.9,11.6-3.3,11.8-8.9,11.8S1116.1,569.1,1116.1,561.9Zm13.6,0c0-5.3-1.8-8.4-4.8-8.4s-4.8,3.1-4.8,8.3,1.8,8.5,4.8,8.5S1129.7,567.2,1129.7,561.9Z" style="fill:#bf223c"/><path d="M1136.5,571.1a2.2,2.2,0,1,1,4.4,0,2.2,2.2,0,0,1-4.4,0Z" style="fill:#bf223c"/><path d="M1148.7,554.5h-.1l-5.9,4v-3.7l5.9-4.2h4v22.6h-3.9Z" style="fill:#bf223c"/><path d="M1169,554h-11.7v-3.3H1173V554l-9.7,19.2h-4.2Z" style="fill:#bf223c"/><path d="M635.7,105.2l-1.4,8.5h-3.8l2.2-8.5Zm6.6,0-1.3,8.5h-3.8l2.1-8.5Z" style="fill:#bf223c"/><path d="M651.6,109.1h-.1l-5.8,4v-3.7l5.9-4.2h4v22.6h-4Z" style="fill:#bf223c"/><path d="M660.6,122.2h4c.6,1.8,2.1,2.7,4.2,2.7s5.2-3.3,5.2-8.5h0c-.9,2.2-3.2,3.6-6.1,3.6a7.2,7.2,0,0,1-7.5-7.4c0-4.6,3.5-7.9,8.4-7.9s9.1,3.2,9.1,11.5-3.4,12-9.2,12C664.5,128.2,661.2,125.8,660.6,122.2Zm12.8-9.6a4.4,4.4,0,0,0-4.6-4.5,4.4,4.4,0,0,0-4.5,4.4,4.3,4.3,0,0,0,4.5,4.4A4.3,4.3,0,0,0,673.4,112.6Z" style="fill:#bf223c"/><path d="M688.5,104.8c4.6,0,7.7,2.8,7.7,6.4s-1.3,4.4-5.2,8.3l-5,4.9h10.5v3.3H680.7V125l8-7.8c2.9-2.9,3.6-4,3.6-5.7a3.5,3.5,0,0,0-3.8-3.5,4,4,0,0,0-4.2,3.9h-3.8C680.5,107.7,683.9,104.8,688.5,104.8Z" style="fill:#bf223c"/><path d="M700,125.7a2.2,2.2,0,1,1,4.4,0,2.2,2.2,0,1,1-4.4,0Z" style="fill:#bf223c"/><path d="M707.5,116.5c0-7.2,3.4-11.7,8.9-11.7s8.9,4.4,8.9,11.6-3.3,11.8-8.9,11.8S707.5,123.7,707.5,116.5Zm13.7,0c0-5.3-1.8-8.4-4.8-8.4s-4.8,3.1-4.8,8.3,1.8,8.5,4.8,8.5S721.2,121.8,721.2,116.5Z" style="fill:#bf223c"/><path d="M728,125.7a2.2,2.2,0,1,1,4.4,0,2.2,2.2,0,1,1-4.4,0Z" style="fill:#bf223c"/><path d="M735.5,116.5c0-7.2,3.4-11.7,8.9-11.7s8.9,4.4,8.9,11.6-3.3,11.8-8.9,11.8S735.5,123.7,735.5,116.5Zm13.7,0c0-5.3-1.8-8.4-4.8-8.4s-4.8,3.1-4.8,8.3,1.8,8.5,4.8,8.5S749.2,121.8,749.2,116.5Z" style="fill:#bf223c"/><path d="M756,125.7a2.2,2.2,0,1,1,4.4,0,2.2,2.2,0,1,1-4.4,0Z" style="fill:#bf223c"/><path d="M768.1,109.1H768l-5.8,4v-3.7l5.9-4.2h4v22.6h-4Z" style="fill:#bf223c"/><path d="M788.5,108.6H776.8v-3.3h15.7v3.4l-9.7,19.2h-4.2Z" style="fill:#bf223c"/><path d="M795.8,113.7l1.2-8.5h3.8l-2.1,8.5Zm6.5,0,1.4-8.5h3.8l-2.2,8.5Z" style="fill:#bf223c"/><path d="M659.8,143.6h3.4c-2.2,2.7-4,8.5-4,13.7s1.8,11,4,13.7h-3.4c-3.2-3.8-4.6-8.2-4.6-13.7S656.6,147.4,659.8,143.6Z" style="fill:#bf223c"/><path d="M665,154.9c0-7.2,4.1-11.7,10.5-11.7s9.3,3.3,9.7,8.1h-3.9a5.6,5.6,0,0,0-5.8-4.6c-3.8,0-6.3,3.1-6.3,8.2s2.4,8.2,6.3,8.2,5.2-1.6,5.8-4.3h3.9c-.7,4.8-4.3,7.7-9.7,7.7S665,162.1,665,154.9Z" style="fill:#bf223c"/><path d="M687.2,161.4c0-2.9,2.3-4.7,6.3-4.9l4.4-.3V155c0-1.7-1.2-2.7-3.1-2.7s-3,.9-3.3,2.3h-3.6c.2-3.1,2.8-5.3,7-5.3s6.8,2.1,6.8,5.5v11.4H698v-2.7h-.1a5.9,5.9,0,0,1-5.2,2.9C689.5,166.4,687.2,164.4,687.2,161.4Zm10.7-1.4v-1.2l-3.9.2c-1.8.1-2.9,1-2.9,2.3s1.1,2.2,2.8,2.2A3.7,3.7,0,0,0,697.9,160Z" style="fill:#bf223c"/><path d="M715.8,155.5a3.5,3.5,0,0,0-3.7-3.1c-2.4,0-4,2.1-4,5.5s1.6,5.4,4.1,5.4a3.5,3.5,0,0,0,3.6-3h3.7c-.4,3.8-3.2,6.2-7.4,6.2s-7.9-3.2-7.9-8.6,3.1-8.6,7.9-8.6,7.1,2.7,7.3,6.2Z" style="fill:#bf223c"/><path d="M721.9,143.6h3.8v8.8h.1a5.3,5.3,0,0,1,5.2-3.1c3.7,0,5.8,2.4,5.8,6.2v10.7h-3.9v-9.9c0-2.3-1.1-3.7-3.4-3.7s-3.7,1.6-3.7,4v9.6h-3.9Z" style="fill:#bf223c"/><path d="M754.5,161.2c-.5,3.1-3.4,5.3-7.3,5.3s-8-3.3-8-8.6,3.1-8.6,7.9-8.6,7.6,3.2,7.6,8.3v1.2H743.1v.3a4.1,4.1,0,0,0,4.2,4.4,3.5,3.5,0,0,0,3.6-2.3Zm-11.3-4.9h7.7c-.1-2.4-1.6-4-3.8-4A3.9,3.9,0,0,0,743.2,156.3Z" style="fill:#bf223c"/><path d="M756.5,157.9c0-5.3,2.7-8.6,6.9-8.6a5.6,5.6,0,0,1,5.1,3.1h.1v-8.8h3.9v22.6h-3.8v-2.9h-.1a5.5,5.5,0,0,1-5.2,3.1C759.2,166.4,756.5,163.1,756.5,157.9Zm4,0c0,3.3,1.5,5.3,4.1,5.3s4-2,4-5.3-1.6-5.4-4-5.4S760.5,154.6,760.5,157.9Z" style="fill:#bf223c"/><path d="M778.2,171h-3.4c2.2-2.7,4-8.5,4-13.7s-1.8-11-4-13.7h3.4c3.2,3.8,4.6,8.2,4.6,13.7S781.4,167.2,778.2,171Z" style="fill:#bf223c"/><path d="M1118.8,70.9H912.6a7.3,7.3,0,0,0-7.3,7.3v70.5a7.3,7.3,0,0,0,7.3,7.3h206.2a7.3,7.3,0,0,0,7.2-7.3V78.2A7.3,7.3,0,0,0,1118.8,70.9Zm-1.1,76.8H913.6V79.2h204.1Zm-104.5-21V100.1a2.5,2.5,0,0,1,2.5-2.4,2.5,2.5,0,0,1,2.5,2.4v26.6a2.5,2.5,0,0,1-2.5,2.5A2.5,2.5,0,0,1,1013.2,126.7Zm18.5,0V100.1a2.5,2.5,0,0,1,5,0v26.6a2.5,2.5,0,1,1-5,0Zm18.5,0V100.1a2.5,2.5,0,0,1,5,0v26.6a2.5,2.5,0,1,1-5,0Zm18.5,0V100.1a2.5,2.5,0,0,1,5,0v26.6a2.5,2.5,0,1,1-5,0Zm-129.6,0V100.1a2.5,2.5,0,0,1,5,0v26.6a2.5,2.5,0,0,1-5,0Zm18.5,0V100.1a2.5,2.5,0,0,1,2.5-2.4,2.5,2.5,0,0,1,2.5,2.4v26.6a2.5,2.5,0,0,1-2.5,2.5A2.5,2.5,0,0,1,957.6,126.7Zm18.6,0V100.1a2.5,2.5,0,0,1,4.9,0v26.6a2.5,2.5,0,1,1-4.9,0Zm18.5,0V100.1a2.5,2.5,0,0,1,4.9,0v26.6a2.5,2.5,0,1,1-4.9,0Zm92.5,0V100.1a2.5,2.5,0,0,1,5,0v26.6a2.5,2.5,0,1,1-5,0Zm5.5,40.9a4.1,4.1,0,0,1-4.1,4.1H942.8a4.1,4.1,0,1,1,0-8.2h145.8A4.1,4.1,0,0,1,1092.7,167.6Z" style="fill:#36393a"/><path d="M946.2,210.2c6.8,0,10.7,4.1,10.7,11.2s-3.9,11.4-10.7,11.4H938V210.2ZM942,229.4h3.8c4.5,0,7-2.8,7-8s-2.5-7.8-7-7.8H942Z" style="fill:#36393a"/><path d="M960.2,232.8V210.2h3.5L974.8,226h.2V210.2h3.9v22.6h-3.5l-11.2-15.9H964v15.9Z" style="fill:#36393a"/><path d="M985.8,226.5c.3,2,2.3,3.3,5.1,3.3s4.6-1.4,4.6-3.2-1.1-2.7-4.1-3.3l-2.4-.5c-4.5-.9-6.6-3-6.6-6.3s3.5-6.7,8.4-6.7,8.3,2.8,8.4,6.8h-3.9c-.2-2.1-2-3.4-4.6-3.4s-4.2,1.2-4.2,3.1,1.1,2.5,3.9,3.1l2.4.5c4.8,1,6.8,2.9,6.8,6.2s-3.4,7-8.8,7-8.7-2.5-8.9-6.6Z" style="fill:#36393a"/><path d="M1014.9,215.9c4.1,0,6.6,2.1,6.7,5.3H1018c-.1-1.5-1.3-2.5-3.1-2.5s-2.8.8-2.8,2,.7,1.7,2.4,2l2.8.7c3.4.7,4.7,2,4.7,4.5s-2.8,5.2-6.9,5.2-6.9-2.1-7.2-5.3h3.8c.3,1.6,1.4,2.4,3.4,2.4s3.1-.7,3.1-2-.6-1.5-2.4-1.9l-2.7-.6q-4.8-1-4.8-4.8C1008.3,217.9,1010.9,215.9,1014.9,215.9Z" style="fill:#36393a"/><path d="M1039.1,227.8c-.5,3.1-3.4,5.3-7.3,5.3s-8-3.3-8-8.6,3-8.6,7.8-8.6,7.7,3.2,7.7,8.3v1.2h-11.6v.3a4,4,0,0,0,4.2,4.4,3.6,3.6,0,0,0,3.6-2.3Zm-11.4-4.9h7.7a3.7,3.7,0,0,0-3.8-4C1029.4,218.9,1027.9,220.5,1027.7,222.9Z" style="fill:#36393a"/><path d="M1041.8,216.2h3.7v2.9h.1a3.9,3.9,0,0,1,3.9-3.2l1.3.2v3.5l-1.6-.2c-2.2,0-3.5,1.4-3.5,3.7v9.7h-3.9Z" style="fill:#36393a"/><path d="M1061.5,232.8h-4.3l-5.8-16.6h4.1l3.9,13h0l3.9-13h4Z" style="fill:#36393a"/><path d="M1083.3,227.8c-.5,3.1-3.4,5.3-7.4,5.3s-7.9-3.3-7.9-8.6,3-8.6,7.8-8.6,7.6,3.2,7.6,8.3v1.2h-11.6v.3a4.1,4.1,0,0,0,4.2,4.4,3.5,3.5,0,0,0,3.6-2.3Zm-11.4-4.9h7.7c-.1-2.4-1.6-4-3.8-4A3.9,3.9,0,0,0,1071.9,222.9Z" style="fill:#36393a"/><path d="M1085.9,216.2h3.8v2.9h0a4,4,0,0,1,4-3.2l1.2.2v3.5l-1.6-.2c-2.2,0-3.5,1.4-3.5,3.7v9.7h-3.9Z" style="fill:#36393a"/><path d="M430.1,224.4a5.2,5.2,0,1,0,10.4,0V210.2h4.1v14.6c0,4.9-3.6,8.3-9.3,8.3s-9.3-3.4-9.3-8.3V210.2h4.1Z" style="fill:#36393a"/><path d="M454.5,215.9c4,0,6.6,2.1,6.7,5.3h-3.6a2.8,2.8,0,0,0-3.1-2.5c-1.7,0-2.9.8-2.9,2s.7,1.7,2.5,2l2.7.7c3.5.7,4.8,2,4.8,4.5s-2.9,5.2-7,5.2-6.8-2.1-7.2-5.3h3.9q.4,2.4,3.3,2.4c1.9,0,3.1-.7,3.1-2s-.6-1.5-2.3-1.9l-2.8-.6c-3.1-.7-4.7-2.3-4.7-4.8S450.5,215.9,454.5,215.9Z" style="fill:#36393a"/><path d="M478.7,227.8c-.5,3.1-3.4,5.3-7.4,5.3s-7.9-3.3-7.9-8.6,3-8.6,7.8-8.6,7.6,3.2,7.6,8.3v1.2H467.2v.3a4.1,4.1,0,0,0,4.2,4.4,3.5,3.5,0,0,0,3.6-2.3Zm-11.4-4.9H475c-.1-2.4-1.6-4-3.8-4A3.9,3.9,0,0,0,467.3,222.9Z" style="fill:#36393a"/><path d="M481.3,216.2H485v2.9h.1a4,4,0,0,1,4-3.2l1.2.2v3.5l-1.6-.2c-2.2,0-3.5,1.4-3.5,3.7v9.7h-3.9Z" style="fill:#36393a"/><line x1="583" y1="83" x2="872.6" y2="83" style="fill:none;stroke:#404242;stroke-miterlimit:10;stroke-width:5px"/><polygon points="856 103.4 852.6 99.8 870.7 83 852.6 66.2 856 62.6 878 83 856 103.4" style="fill:#404242"/><line x1="878" y1="176.5" x2="588.4" y2="176.5" style="fill:none;stroke:#bf223c;stroke-miterlimit:10;stroke-width:5px"/><polygon points="605 156.1 608.4 159.7 590.3 176.5 608.4 193.3 605 196.9 583 176.5 605 156.1" style="fill:#bf223c"/><line x1="457.4" y1="257.5" x2="873.7" y2="466.1" style="fill:none;stroke:#bf223c;stroke-miterlimit:10;stroke-width:5px"/><polygon points="849.7 476.9 848.3 472.1 871.9 465.2 863.3 442.1 868 440.4 878.5 468.5 849.7 476.9" style="fill:#bf223c"/><path d="M1018.1,656.3a36.9,36.9,0,1,0,36.8,36.9A36.9,36.9,0,0,0,1018.1,656.3Zm0,68.6a31.8,31.8,0,1,1,31.7-31.7A31.7,31.7,0,0,1,1018.1,724.9Zm15.8-44.6L1021,693.2l12.9,12.8-2.9,2.9L1018.1,696l-12.9,12.9-2.9-2.9,12.9-12.8-12.9-12.9,2.9-2.9,12.9,12.9,12.9-12.9Z" style="fill:#bf223c"/></svg>